<?xml version="1.0" standalone="no"?>
<!DOCTYPE svg PUBLIC "-//W3C//DTD SVG 20010904//EN"
 "http://www.w3.org/TR/2001/REC-SVG-20010904/DTD/svg10.dtd">
<svg version="1.0" xmlns="http://www.w3.org/2000/svg"
 width="16.000000pt" height="16.000000pt" viewBox="0 0 16.000000 16.000000"
 preserveAspectRatio="xMidYMid meet">
<metadata>
Created by potrace 1.11, written by Peter Selinger 2001-2013
</metadata>
<g transform="translate(0.000000,16.000000) scale(0.000683,-0.000683)"
fill="#000000" stroke="none">
<path d="M10870 23379 c-204 -178 -941 -905 -1417 -1397 l-139 -143 -149 8
c-282 14 -1004 7 -1103 -12 -9 -1 -48 -6 -85 -10 -37 -3 -78 -8 -90 -11 -12
-2 -38 -7 -57 -10 -19 -3 -48 -7 -65 -10 -199 -31 -421 -113 -660 -243 -174
-94 -515 -328 -658 -451 -12 -10 -31 -27 -43 -37 -12 -10 -50 -43 -85 -73 -85
-73 -523 -508 -577 -573 -23 -29 -54 -65 -70 -82 -266 -290 -645 -878 -772
-1200 -68 -170 -118 -368 -149 -580 -20 -137 -26 -194 -37 -351 -8 -110 -8
-708 0 -829 11 -158 16 -227 21 -265 2 -19 7 -69 10 -110 3 -41 15 -142 26
-225 11 -82 22 -168 25 -190 5 -43 50 -313 59 -355 3 -14 8 -45 11 -70 3 -25
8 -48 10 -51 3 -5 6 -19 20 -104 4 -26 86 -391 100 -450 3 -11 7 -29 9 -40 3
-11 20 -81 39 -155 25 -97 31 -137 23 -141 -7 -4 -34 -10 -60 -14 -27 -3 -59
-9 -70 -12 -12 -3 -132 -5 -267 -4 l-244 1 -53 -52 -53 -52 0 -256 c0 -212 4
-274 20 -365 11 -60 23 -123 26 -140 10 -63 24 -141 29 -165 3 -14 8 -45 11
-70 l6 -45 -55 -38 c-30 -21 -83 -65 -116 -99 l-61 -60 0 -97 c0 -91 4 -109
49 -242 26 -79 51 -151 54 -159 3 -8 12 -35 20 -59 9 -27 34 -64 67 -98 52
-53 159 -133 179 -133 5 0 11 -3 13 -8 2 -4 75 -54 163 -111 l161 -104 -3
-136 c-1 -75 -5 -297 -9 -495 l-6 -358 54 -55 c40 -42 78 -67 153 -103 55 -26
142 -73 194 -104 82 -50 106 -59 195 -76 55 -11 111 -21 123 -24 11 -2 43 -8
69 -12 42 -6 45 -8 25 -15 -22 -9 -36 -12 -113 -24 -18 -3 -40 -8 -48 -10 -8
-2 -34 -7 -57 -10 -105 -12 -135 -25 -188 -76 l-52 -51 0 -101 0 -102 50 -95
c27 -52 64 -122 82 -155 18 -33 81 -154 140 -270 59 -115 142 -277 185 -360
73 -140 156 -303 452 -885 204 -400 235 -457 370 -685 111 -187 96 -164 203
-324 130 -197 349 -491 416 -561 8 -8 25 -28 37 -45 56 -72 180 -204 374 -398
115 -115 199 -206 187 -202 -113 36 -218 102 -384 240 -66 55 -129 106 -139
115 -11 8 -35 29 -55 46 -20 16 -48 39 -62 50 -15 10 -63 47 -107 81 -245 190
-468 307 -662 348 -75 16 -477 14 -546 -2 -91 -22 -156 -71 -312 -239 -23 -25
-90 -168 -116 -249 -36 -112 -67 -254 -86 -400 -6 -44 -13 -91 -15 -105 -2
-14 -6 -61 -10 -105 -4 -44 -8 -100 -11 -125 -5 -60 -14 -424 -14 -576 l0
-121 -82 18 c-46 11 -94 21 -108 24 -69 13 -93 19 -187 46 -57 16 -138 44
-180 61 -78 31 -79 31 -278 33 -180 2 -253 -2 -379 -19 -21 -3 -46 -8 -55 -10
-9 -3 -29 -8 -46 -11 -54 -9 -171 -42 -190 -52 -21 -12 -117 11 -300 73 -107
36 -114 37 -260 37 -141 1 -262 -6 -330 -18 -16 -3 -66 -12 -110 -20 -44 -8
-91 -16 -105 -19 -59 -11 -233 -60 -330 -92 -350 -119 -636 -277 -870 -483
-82 -72 -264 -260 -320 -330 -158 -197 -282 -468 -325 -711 -31 -170 -33 -207
-31 -510 2 -173 6 -335 10 -360 23 -157 30 -195 53 -280 43 -163 115 -330 195
-455 102 -158 328 -386 503 -507 97 -66 322 -172 423 -198 163 -41 207 -51
279 -61 l83 -11 160 -158 c236 -234 381 -336 500 -354 59 -9 320 -9 385 -1 73
9 205 44 242 63 18 9 79 49 137 89 131 89 235 139 319 153 67 10 82 17 157 64
54 35 201 148 250 192 67 62 95 84 106 84 5 0 33 -11 60 -24 l50 -24 38 -114
c125 -369 354 -855 565 -1199 141 -231 183 -293 335 -498 101 -137 274 -348
355 -433 l44 -48 4337 0 4338 0 26 34 c14 19 26 37 26 40 0 3 14 29 32 58 80
134 156 322 182 450 15 75 22 333 12 433 -23 217 -24 1178 -1 1595 12 223 17
320 20 350 18 234 19 248 29 325 4 28 9 68 12 90 11 81 16 112 35 205 10 52
29 123 41 157 21 61 22 62 87 91 92 41 222 84 321 107 28 7 215 46 240 50 14
3 34 7 45 9 11 2 40 7 65 10 25 3 56 8 70 11 26 5 64 11 135 20 22 3 56 7 75
10 19 2 54 7 78 10 23 3 59 7 80 10 35 4 78 9 195 20 28 3 73 7 100 10 105 11
146 15 227 20 47 4 105 8 130 10 41 4 109 8 315 20 39 2 153 7 255 10 275 9
310 13 450 47 160 39 307 101 413 175 72 50 214 190 242 238 36 62 124 408
181 710 20 104 103 508 106 510 2 1 91 45 198 97 171 83 202 102 250 152 30
31 55 60 56 64 1 20 19 109 40 202 12 58 25 119 28 135 3 17 24 106 46 199 22
93 40 171 40 172 0 11 108 35 225 49 105 13 128 17 151 25 26 10 144 127 144
144 0 6 6 23 14 37 7 15 38 102 69 195 80 243 100 310 232 759 31 105 64 219
75 255 11 36 26 90 34 120 32 122 76 277 88 310 7 20 13 94 14 174 2 210 -21
258 -226 463 -102 102 -120 124 -125 158 -6 35 -3 44 20 70 59 64 226 243 283
303 81 85 89 111 90 299 1 149 -12 245 -43 337 -13 38 -13 40 16 67 77 72 386
180 729 255 14 3 90 21 170 40 604 145 593 141 786 332 141 140 257 261 328
343 22 24 62 69 90 100 58 63 161 180 197 222 24 28 28 29 134 32 61 2 130 8
155 15 25 6 53 12 62 15 40 9 107 44 141 75 l37 32 0 784 0 784 -96 0 -96 0
-65 -62 c-77 -74 -89 -96 -137 -250 l-36 -117 -63 -20 c-34 -10 -82 -22 -107
-25 -25 -3 -54 -8 -65 -10 -11 -2 -46 -7 -79 -11 -61 -7 -77 -10 -163 -25
-101 -18 -312 -25 -713 -24 -373 1 -694 9 -780 19 -19 3 -60 7 -90 10 -30 3
-85 15 -123 27 -60 19 -66 23 -54 37 7 9 44 54 82 101 38 47 73 90 79 95 6 6
36 39 66 75 30 36 62 72 70 80 8 8 35 38 59 65 25 28 85 94 135 148 138 150
135 142 135 322 0 241 -28 325 -152 453 -100 103 -106 105 -267 105 -114 0
-142 -3 -180 -20 -55 -24 -160 -103 -272 -203 -91 -81 -530 -520 -893 -894
-345 -354 -344 -353 -544 -591 -51 -61 -168 -228 -218 -310 -55 -92 -116 -250
-129 -335 -3 -19 -10 -53 -15 -75 -9 -40 -5 -590 5 -655 4 -31 -17 -124 -44
-185 -5 -11 -27 -74 -50 -140 -23 -66 -51 -142 -62 -170 -11 -27 -21 -54 -22
-60 -2 -11 -73 -209 -86 -240 -5 -11 -34 -90 -65 -175 -31 -85 -58 -156 -60
-158 -1 -2 -11 1 -22 7 -10 6 -54 27 -98 46 -44 20 -93 42 -110 50 -43 20
-181 70 -244 89 -38 11 -95 16 -187 16 l-132 0 -71 -71 c-78 -77 -129 -169
-191 -344 -18 -49 -36 -99 -41 -110 -7 -15 -258 -773 -264 -795 -1 -3 -4 -12
-7 -20 -4 -8 -11 -28 -16 -45 -22 -62 -60 -162 -81 -207 -11 -27 -30 -67 -40
-90 -41 -92 -54 -167 -54 -328 -1 -197 6 -237 49 -296 21 -29 22 -33 9 -85 -7
-30 -16 -63 -20 -74 -25 -66 -57 -126 -80 -151 -15 -16 -44 -49 -64 -74 -20
-25 -39 -47 -42 -50 -6 -6 -157 -200 -238 -307 l-54 -71 -171 6 c-387 14
-1307 6 -1401 -12 -48 -9 -173 -20 -210 -18 -104 6 -346 84 -470 150 -37 20
-37 21 -10 16 17 -3 38 -8 47 -10 132 -36 569 -38 749 -4 30 6 66 13 80 15 49
9 146 43 215 76 169 82 308 190 524 408 139 140 379 422 411 483 6 12 15 25
19 28 20 14 360 548 360 565 0 2 15 30 34 62 103 178 208 383 246 478 65 162
158 491 199 700 6 28 13 61 16 75 13 61 55 288 59 320 3 19 7 46 10 60 7 36
17 99 22 140 2 19 6 46 9 60 3 14 8 45 10 70 3 25 7 54 9 65 2 12 7 48 11 80
4 33 9 69 11 80 2 11 6 48 10 83 3 35 7 72 9 83 2 11 7 48 10 82 3 34 8 73 10
87 3 25 12 106 20 190 3 25 7 65 9 90 3 25 8 79 12 120 3 41 7 91 9 110 2 19
6 76 9 125 4 50 9 106 11 125 3 19 7 75 9 124 13 251 14 257 60 307 22 25 68
76 101 114 33 37 65 73 70 79 6 6 46 52 89 101 174 197 204 229 295 308 161
138 406 338 704 573 122 97 252 205 290 240 l67 66 0 275 c0 250 2 280 19 317
108 231 291 790 327 996 3 14 9 39 14 55 23 74 95 456 116 614 2 19 6 46 9 60
4 24 11 88 19 171 2 19 7 55 10 80 24 200 35 453 35 825 0 313 -4 421 -24 575
-18 138 -21 159 -45 280 -6 30 -13 66 -16 80 -9 49 -75 303 -90 347 -9 25 -17
53 -19 62 -12 57 -107 318 -177 486 -285 684 -769 1445 -1306 2050 -247 278
-615 648 -852 855 -35 30 -68 60 -74 66 -32 31 -286 238 -397 322 -173 132
-543 382 -652 441 l-57 31 -2413 0 -2412 0 -35 -31z m-1100 -1388 c0 -5 -27
-37 -60 -72 -33 -35 -60 -67 -60 -71 0 -22 -134 -138 -145 -126 -3 3 255 274
263 277 1 1 2 -3 2 -8z m9163 -2611 c3 -11 1 -18 -4 -14 -5 3 -9 12 -9 20 0
20 7 17 13 -6z m26 -73 c1 -5 -3 -5 -9 -2 -5 3 -10 16 -9 28 0 21 1 21 9 2 5
-11 9 -24 9 -28z m45 -127 c80 -234 146 -494 185 -728 24 -139 36 -272 22
-228 -6 16 -12 53 -15 82 -3 30 -8 59 -12 65 -6 11 -20 88 -31 179 -3 25 -9
49 -14 55 -5 5 -9 19 -9 30 0 12 -10 57 -21 101 -12 43 -25 97 -29 119 -4 22
-15 65 -24 95 -9 30 -19 71 -22 90 -3 19 -9 39 -15 45 -5 5 -9 17 -9 27 0 10
-4 26 -9 36 -21 42 -51 156 -37 141 2 -2 20 -51 40 -109z m-13873 -102 c-6
-18 -22 -67 -36 -109 -14 -41 -25 -85 -25 -97 0 -11 -4 -24 -10 -27 -5 -3 -10
-19 -10 -36 0 -16 -4 -37 -9 -47 -8 -16 -26 -91 -51 -212 -6 -30 -16 -75 -22
-100 -5 -25 -12 -65 -14 -90 -2 -25 -8 -58 -13 -75 -8 -23 -9 -15 -5 40 2 39
7 77 9 85 2 8 6 35 9 60 7 59 41 225 66 320 23 85 112 332 118 325 2 -2 -1
-18 -7 -37z m-204 -915 c-3 -10 -5 -2 -5 17 0 19 2 27 5 18 2 -10 2 -26 0 -35z
m14300 -55 c-2 -18 -4 -6 -4 27 0 33 2 48 4 33 2 -15 2 -42 0 -60z m1633
-3698 c0 -6 -8 -13 -17 -17 -10 -3 -26 -13 -36 -21 -9 -8 -20 -13 -23 -9 -3 3
11 17 33 31 45 29 43 29 43 16z"/>
</g>
</svg>
